<?xml version="1.0" standalone="no"?>
<!DOCTYPE svg PUBLIC "-//W3C//DTD SVG 20010904//EN"
 "http://www.w3.org/TR/2001/REC-SVG-20010904/DTD/svg10.dtd">
<svg version="1.0" xmlns="http://www.w3.org/2000/svg"
 width="1080.000000pt" height="1080.000000pt" viewBox="0 0 1080.000000 1080.000000"
 preserveAspectRatio="xMidYMid meet">

<g transform="translate(0.000000,1080.000000) scale(0.100000,-0.100000)"
fill="#000000" stroke="none">
<path d="M5165 9419 c-56 -7 -125 -13 -270 -24 -89 -8 -212 -31 -375 -71 -36
-9 -81 -19 -100 -24 -342 -76 -926 -293 -1210 -450 -47 -26 -116 -64 -155 -85
-223 -121 -419 -254 -700 -474 -114 -89 -351 -317 -463 -446 -58 -66 -117
-133 -131 -150 -14 -16 -78 -95 -141 -175 -275 -347 -519 -766 -685 -1175 -31
-77 -63 -153 -70 -170 -48 -111 -114 -317 -150 -470 -7 -33 -28 -114 -45 -180
-35 -137 -76 -322 -91 -410 -5 -33 -14 -85 -20 -115 -5 -30 -14 -95 -19 -145
-5 -49 -14 -130 -20 -180 -21 -165 -23 -570 -5 -805 17 -233 29 -355 39 -410
26 -141 29 -155 65 -315 58 -254 174 -584 300 -848 34 -70 61 -129 61 -132 0
-13 65 -144 95 -191 19 -30 35 -56 35 -59 0 -3 16 -29 35 -59 19 -30 35 -57
35 -60 0 -14 142 -246 212 -346 139 -198 348 -433 448 -503 43 -31 48 -32 140
-30 102 1 161 18 182 53 10 15 24 20 55 20 38 0 42 3 51 33 13 43 22 157 33
417 8 202 13 256 39 455 6 44 14 116 19 160 4 44 14 106 21 138 15 65 9 79
-21 51 -19 -17 -47 -19 -307 -27 -158 -4 -380 -7 -495 -5 -237 5 -223 -1 -278
103 -101 191 -140 270 -163 335 -15 40 -40 101 -57 134 -17 34 -36 79 -43 101
-62 189 -123 450 -156 665 -6 41 -15 100 -20 130 -24 146 -35 346 -34 630 1
211 5 317 13 343 7 20 14 81 15 135 2 59 9 112 18 133 14 32 26 78 48 189 5
25 13 63 19 85 20 78 30 120 39 160 89 385 100 423 229 745 61 152 89 212 189
415 107 214 150 290 265 463 16 23 29 45 29 47 0 3 7 13 15 22 27 33 115 154
115 158 0 3 6 13 14 22 149 187 198 246 237 288 26 28 62 68 79 90 44 56 212
226 333 338 158 146 379 307 607 442 63 37 138 82 165 100 56 35 399 209 430
217 11 4 65 23 120 43 55 20 134 48 175 61 41 14 84 29 95 33 43 19 196 66
298 91 20 6 54 14 75 20 20 5 62 14 92 21 30 6 71 16 90 21 38 11 113 26 173
35 20 3 40 9 43 14 3 5 36 9 73 9 37 0 71 4 77 10 5 5 50 12 99 14 50 3 122 9
160 15 136 19 485 20 675 1 74 -7 176 -16 225 -21 150 -14 224 -25 360 -54 72
-15 148 -31 170 -35 157 -32 192 -40 305 -73 88 -26 111 -33 145 -47 11 -4 40
-14 65 -21 25 -7 49 -16 54 -21 6 -4 17 -8 25 -8 30 0 399 -146 485 -192 11
-6 61 -31 110 -56 50 -26 93 -49 96 -52 3 -3 21 -13 40 -22 71 -35 186 -104
267 -159 23 -16 44 -29 48 -29 10 0 308 -209 348 -244 22 -19 53 -45 70 -58
28 -20 74 -60 142 -121 11 -10 38 -33 60 -50 77 -63 307 -300 398 -412 47 -59
208 -268 242 -315 22 -30 43 -56 47 -58 5 -2 8 -8 8 -13 0 -5 20 -38 44 -72
25 -35 53 -79 64 -98 32 -56 91 -153 99 -165 41 -55 260 -500 333 -679 96
-233 169 -452 221 -657 5 -21 13 -55 19 -75 5 -21 21 -96 35 -168 15 -71 31
-146 36 -165 31 -110 43 -1067 16 -1295 -25 -205 -33 -263 -50 -335 -8 -36
-18 -90 -22 -120 -13 -105 -48 -236 -87 -325 -22 -49 -42 -99 -45 -110 -3 -11
-14 -40 -25 -64 -11 -24 -31 -76 -44 -115 -30 -85 -32 -90 -76 -186 -19 -41
-41 -90 -49 -107 -8 -18 -17 -33 -21 -33 -5 0 -8 -6 -8 -14 0 -34 -30 -41
-194 -42 -89 -1 -308 -5 -489 -9 -307 -7 -329 -7 -347 10 -19 17 -20 17 -20 1
0 -17 24 -102 40 -141 9 -21 22 -76 40 -165 6 -30 16 -69 21 -86 5 -17 9 -41
9 -53 0 -13 7 -44 15 -70 8 -25 19 -80 25 -121 6 -41 15 -97 20 -125 36 -193
38 -390 5 -509 -9 -32 -13 -62 -8 -67 4 -4 46 -4 93 2 47 5 122 12 168 16 l83
6 69 71 c38 39 99 109 136 156 36 47 87 110 113 140 42 49 113 144 182 240 22
31 58 90 165 275 259 447 472 1005 545 1430 5 33 15 87 21 120 5 33 14 89 18
125 5 36 13 103 20 149 16 111 9 1312 -8 1386 -6 28 -16 88 -22 135 -23 167
-57 320 -140 625 -10 38 -50 151 -83 235 -14 36 -38 99 -53 140 -15 41 -43
109 -62 150 -19 41 -58 127 -87 190 -64 142 -219 433 -289 545 -260 415 -513
726 -851 1046 -241 227 -648 530 -951 707 -98 57 -353 183 -494 245 -100 44
-494 183 -585 207 -16 4 -93 26 -170 48 -177 51 -254 69 -358 87 -45 8 -109
19 -142 25 -33 7 -94 16 -135 20 -358 40 -367 40 -750 38 -212 -1 -412 -5
-445 -9z"/>
<path d="M3530 7849 c-85 -17 -145 -31 -185 -44 -56 -19 -206 -74 -230 -84
-11 -5 -56 -23 -100 -40 -205 -77 -385 -168 -461 -233 -72 -62 -153 -180 -177
-257 -26 -84 -30 -175 -13 -281 24 -148 31 -174 91 -345 108 -307 133 -390
170 -580 20 -103 47 -157 93 -188 142 -96 335 -82 511 37 32 22 58 33 63 28 5
-5 14 -40 20 -78 18 -116 45 -192 137 -379 49 -99 94 -195 99 -213 12 -36 -8
-366 -28 -477 -10 -56 -15 -82 -42 -195 -15 -64 -55 -191 -90 -285 -16 -44
-39 -105 -50 -135 -35 -96 -107 -269 -174 -417 -8 -17 -14 -34 -14 -38 0 -4
-16 -41 -36 -83 -73 -152 -104 -222 -104 -231 0 -12 -48 -156 -89 -266 -52
-142 -89 -249 -101 -295 -7 -25 -17 -58 -21 -75 -5 -16 -23 -86 -40 -155 -17
-69 -35 -141 -40 -160 -5 -19 -14 -57 -19 -85 -6 -27 -15 -72 -20 -100 -51
-242 -94 -547 -110 -790 -10 -142 -13 -462 -5 -476 6 -8 289 -20 309 -13 13 5
14 10 3 27 -9 16 -12 89 -10 272 2 263 8 340 53 665 6 41 14 104 19 140 12 87
31 192 37 202 3 4 9 31 14 60 10 54 23 112 40 181 6 20 14 54 19 75 19 77 60
210 91 292 54 145 101 274 110 300 12 39 45 119 79 193 17 37 31 72 31 77 0 9
46 115 112 260 46 98 132 316 158 395 38 119 36 116 67 109 16 -4 53 -21 83
-38 30 -16 73 -33 95 -37 22 -4 58 -12 80 -18 45 -13 326 -66 425 -80 178 -27
217 -31 317 -31 340 0 800 65 988 140 11 4 54 18 95 30 41 13 99 33 129 46 65
29 71 29 71 3 0 -11 18 -73 41 -137 23 -65 43 -126 46 -137 3 -11 10 -25 15
-32 17 -22 -2 -33 -55 -33 -77 -1 -137 -15 -159 -38 -47 -47 -23 -186 36 -214
14 -6 26 -15 26 -19 0 -16 104 -31 171 -25 37 3 79 2 92 -3 30 -12 49 -57 45
-107 -3 -34 -9 -43 -58 -75 -85 -57 -90 -64 -90 -111 1 -56 21 -81 92 -112 46
-20 57 -30 63 -55 3 -16 13 -32 21 -35 8 -3 14 -12 14 -21 0 -8 7 -15 15 -15
8 0 15 -8 15 -17 0 -10 14 -26 31 -36 17 -9 33 -25 36 -35 5 -19 43 -48 43
-33 0 5 -5 11 -11 13 -7 2 -9 13 -5 26 6 19 9 20 22 8 8 -8 14 -21 14 -30 0
-8 5 -18 10 -21 6 -3 10 -15 10 -26 0 -21 -20 -27 -20 -6 0 6 -5 4 -11 -6 -6
-10 -9 -19 -7 -20 1 -1 13 -8 26 -15 18 -10 22 -10 22 0 1 28 40 -98 40 -129
0 -17 5 -35 10 -38 14 -9 13 -48 -4 -125 -13 -61 -26 -101 -76 -245 -32 -94
-40 -120 -40 -138 0 -10 -4 -25 -9 -35 -5 -9 -15 -37 -22 -62 -7 -25 -21 -71
-31 -104 -11 -32 -23 -77 -28 -100 -5 -22 -14 -59 -20 -81 -19 -67 -39 -156
-67 -295 -8 -41 -19 -95 -24 -120 -5 -25 -14 -76 -19 -115 -5 -38 -14 -99 -20
-135 -6 -36 -14 -86 -17 -112 l-5 -46 58 -8 c33 -5 106 -8 164 -9 l105 0 7
175 c6 186 17 282 43 395 25 109 35 157 45 200 5 22 13 56 18 75 11 42 89 277
101 305 5 11 29 79 55 150 26 72 50 137 55 145 4 8 20 54 36 103 25 78 30 87
53 87 13 0 52 -20 86 -44 58 -41 166 -86 207 -86 30 0 32 -19 6 -73 -73 -151
-63 -307 29 -446 110 -165 314 -278 436 -242 137 41 256 144 321 278 41 86 42
90 42 193 0 111 -20 198 -57 252 -21 31 -20 31 65 43 54 7 109 28 149 56 39
28 61 24 77 -14 7 -17 19 -45 26 -62 7 -16 23 -59 36 -95 12 -36 30 -83 40
-104 11 -22 19 -47 19 -56 0 -9 4 -20 8 -25 5 -6 14 -30 21 -55 7 -25 16 -52
21 -60 4 -9 11 -31 15 -50 4 -19 11 -41 15 -50 8 -16 40 -118 58 -185 6 -22
16 -60 23 -85 32 -118 51 -257 79 -570 6 -74 16 -142 21 -151 12 -24 69 -31
214 -26 l120 3 -2 30 c-7 113 -40 421 -53 494 -48 269 -172 717 -239 863 -17
37 -31 72 -31 77 0 6 -4 18 -9 28 -6 9 -27 62 -47 117 -20 55 -40 105 -44 110
-4 6 -22 52 -40 103 -37 110 -42 95 80 222 45 47 94 102 108 123 24 36 28 38
61 32 20 -3 73 -8 119 -12 72 -4 86 -3 104 13 38 35 68 92 68 132 0 32 -7 44
-47 83 -27 25 -67 57 -90 72 -24 15 -43 32 -43 38 0 6 7 35 15 63 20 69 37 76
181 76 110 0 118 1 153 27 47 33 71 74 71 119 0 30 -6 38 -46 64 -53 33 -117
50 -224 59 l-75 6 -17 80 c-24 109 -39 154 -62 193 -17 31 -20 64 -27 330 -5
164 -11 311 -13 327 -3 17 -10 91 -16 165 -18 237 -46 337 -106 390 -47 41
-63 40 -172 -7 -46 -20 -181 -112 -257 -175 -35 -29 -135 -126 -221 -215
l-157 -163 -49 0 c-27 0 -92 5 -144 11 -77 8 -123 7 -237 -6 l-142 -16 -49 53
c-141 154 -329 346 -358 366 -18 12 -51 38 -73 58 -22 19 -72 51 -111 70 -61
29 -82 34 -142 34 -70 0 -71 0 -105 -40 -48 -57 -50 -66 -88 -365 -13 -103
-31 -423 -33 -590 -1 -110 -4 -135 -21 -162 -35 -58 -44 -49 -105 117 -83 225
-106 352 -141 788 l-13 154 72 141 c74 146 118 248 141 327 8 25 20 64 27 88
8 23 14 49 14 56 0 8 7 19 15 26 12 10 25 3 76 -44 77 -72 112 -89 226 -112
87 -17 95 -17 145 -1 116 37 192 127 219 257 64 314 77 365 119 465 36 88 87
237 109 325 26 103 31 140 31 244 0 228 -77 359 -290 493 -91 57 -158 91 -320
158 -36 15 -85 36 -110 47 -118 53 -221 92 -275 106 -22 6 -58 15 -80 21 -105
26 -400 22 -520 -8 -22 -6 -53 -13 -70 -16 -16 -4 -39 -10 -50 -15 -84 -35
-121 -42 -259 -51 -83 -5 -180 -15 -216 -22 -80 -14 -415 -14 -432 1 -8 6 -70
11 -145 11 -129 1 -243 19 -353 54 -48 15 -106 31 -167 46 -111 27 -351 38
-443 20z m285 -313 c64 -8 121 -23 160 -40 91 -42 122 -76 68 -76 -20 0 -24
-3 -16 -11 8 -8 45 -9 125 -4 169 11 362 10 561 -4 142 -10 199 -10 290 1 147
16 312 16 417 -1 47 -8 133 -15 193 -17 100 -3 107 -2 107 17 0 10 -6 19 -12
19 -7 0 -26 11 -43 24 -25 20 -28 28 -19 43 28 45 255 77 389 54 101 -17 183
-46 325 -114 69 -33 178 -82 243 -108 65 -27 147 -64 181 -83 67 -37 150 -118
167 -163 13 -34 1 -165 -15 -160 -6 2 -12 12 -14 23 -2 11 -23 41 -47 67 -42
45 -65 58 -65 37 0 -5 4 -10 9 -10 5 0 12 -15 15 -33 7 -38 -21 -149 -87 -342
-59 -175 -93 -303 -81 -315 17 -17 49 1 60 33 6 18 18 52 27 77 9 25 26 79 38
120 29 102 49 151 71 175 18 19 18 19 18 -10 0 -30 -21 -99 -33 -111 -4 -4 -7
-18 -7 -30 0 -13 -4 -25 -9 -28 -5 -3 -11 -18 -14 -33 -3 -16 -14 -62 -25
-103 -28 -110 -40 -173 -53 -288 -18 -148 -38 -153 -173 -43 -135 111 -220
254 -281 476 -54 199 -75 265 -105 330 -43 97 -121 148 -214 143 l-50 -3 -14
-49 c-15 -51 -14 -52 33 -276 9 -41 21 -100 26 -130 11 -60 25 -132 38 -195 5
-22 19 -71 30 -110 19 -60 21 -85 16 -175 -3 -58 -10 -123 -14 -145 -5 -22
-14 -65 -21 -95 -18 -89 -34 -140 -42 -140 -4 0 -8 -9 -8 -19 0 -11 -4 -23
-10 -26 -6 -3 -10 -13 -10 -21 0 -23 -68 -162 -116 -237 -24 -37 -44 -71 -44
-75 0 -5 -8 -17 -18 -28 -9 -10 -35 -41 -57 -69 -191 -239 -453 -405 -705
-446 -30 -5 -125 -10 -210 -10 -129 -2 -170 2 -241 19 -312 78 -438 160 -657
426 -120 145 -166 223 -255 426 -17 40 -70 204 -86 268 -6 23 -16 59 -22 81
-22 77 -16 139 28 276 23 72 58 200 78 285 35 151 42 180 65 267 6 24 13 71
16 105 5 58 3 65 -20 90 -54 57 -114 49 -187 -24 -55 -55 -76 -92 -106 -183
-34 -102 -93 -314 -93 -335 0 -6 -9 -30 -20 -52 -11 -23 -20 -47 -20 -53 0
-31 -86 -180 -159 -275 -20 -26 -107 -75 -152 -86 -34 -7 -59 25 -59 79 0 41
-47 245 -78 342 -18 55 -70 191 -91 240 -108 246 -121 408 -38 485 44 42 354
182 499 226 26 8 78 28 115 45 131 59 241 86 393 97 8 1 60 -4 115 -12z m3102
-698 c-3 -8 -6 -5 -6 6 -1 11 2 17 5 13 3 -3 4 -12 1 -19z m-20 -65 c-3 -10
-5 -4 -5 12 0 17 2 24 5 18 2 -7 2 -21 0 -30z m-91 -1897 c71 -73 177 -195
234 -271 l104 -137 45 5 c341 38 520 43 676 17 158 -26 147 -28 191 26 22 27
53 69 69 94 38 58 357 383 366 373 3 -5 12 -201 18 -438 7 -236 17 -448 23
-470 5 -22 34 -88 64 -147 30 -59 54 -115 54 -125 0 -37 -27 -60 -77 -66 -76
-8 -93 -36 -93 -149 l0 -91 23 21 c27 26 65 29 74 6 6 -17 -9 -75 -37 -139
-10 -22 -21 -51 -25 -65 -26 -83 -202 -275 -368 -402 -96 -73 -242 -140 -340
-156 -37 -7 -98 -17 -135 -23 -38 -6 -86 -9 -108 -5 -21 3 -79 11 -129 16
-206 21 -300 55 -490 177 -70 45 -163 119 -199 158 -109 118 -211 285 -247
404 -10 35 -10 46 6 81 21 47 16 112 -14 161 -52 85 -35 156 67 277 48 57 62
82 66 115 3 23 8 213 11 422 5 396 9 465 29 465 6 0 70 -60 142 -134z m-2870
-68 c86 -93 102 -103 271 -187 243 -121 367 -151 623 -151 115 0 251 23 375
64 28 9 66 21 85 27 63 19 233 98 238 111 2 4 8 8 14 8 15 0 148 88 185 123
18 17 36 27 40 23 5 -4 11 -44 15 -89 3 -45 9 -102 13 -127 7 -44 6 -45 -27
-59 -18 -8 -67 -30 -108 -49 -91 -42 -108 -49 -140 -57 -14 -3 -68 -17 -120
-31 -224 -59 -304 -68 -610 -68 -289 0 -369 7 -555 48 -103 23 -129 30 -222
57 -21 6 -53 13 -71 16 -18 3 -35 9 -38 14 -3 5 -11 9 -19 9 -8 0 -35 12 -60
28 -52 30 -51 24 -26 182 6 36 13 85 16 110 12 86 14 91 33 81 10 -5 50 -43
88 -83z m2398 -1789 c-3 -5 -10 -7 -15 -3 -5 3 -7 10 -3 15 3 5 10 7 15 3 5
-3 7 -10 3 -15z m1281 -679 c3 -5 13 -10 21 -10 24 0 84 -50 110 -92 44 -70
21 -159 -63 -243 -84 -84 -173 -66 -254 52 -26 37 -31 54 -31 108 -2 70 13
103 60 132 15 9 40 27 55 40 29 24 91 32 102 13z"/>
<path d="M3294 6767 c-17 -20 -69 -135 -89 -197 -10 -30 -23 -65 -28 -78 -9
-18 -8 -25 3 -32 8 -6 17 -10 20 -10 24 0 66 78 76 142 4 23 11 51 16 62 9 17
23 126 16 126 -2 -1 -8 -6 -14 -13z"/>
<path d="M5410 6593 c-40 -6 -122 -74 -150 -123 -62 -112 -1 -280 114 -311 64
-17 150 -6 192 26 99 75 132 225 70 317 -42 63 -145 104 -226 91z"/>
<path d="M4067 6562 c-58 -42 -117 -142 -117 -198 0 -72 76 -189 132 -206 36
-10 109 -9 149 2 44 12 102 67 130 123 33 64 30 154 -8 215 -41 67 -90 92
-178 91 -60 0 -75 -4 -108 -27z"/>
<path d="M5957 6342 c-9 -10 -16 -31 -15 -48 1 -30 -14 -128 -39 -254 -8 -41
-18 -95 -23 -120 -38 -206 -142 -421 -290 -600 -95 -115 -151 -157 -255 -192
-60 -19 -71 -20 -123 -8 -140 31 -248 124 -266 230 -7 40 -5 45 49 85 46 34
66 53 118 114 36 43 37 47 37 121 0 63 -4 83 -22 110 -58 85 -230 120 -430 89
-118 -19 -166 -46 -214 -121 -61 -96 -2 -224 153 -335 57 -40 63 -48 63 -79 0
-113 -139 -196 -358 -212 l-87 -7 30 -28 c17 -15 59 -42 95 -59 59 -29 74 -32
166 -32 l101 -1 94 48 c52 26 101 47 110 47 9 0 34 -14 55 -31 59 -48 112 -69
175 -69 125 0 337 106 478 238 35 33 69 58 76 55 8 -2 18 4 24 16 6 11 20 23
31 26 12 4 19 14 18 23 -2 11 3 16 15 14 11 -2 17 4 17 16 0 10 11 29 25 42
14 13 25 29 25 36 0 7 9 19 21 27 11 8 22 26 23 41 2 14 12 38 22 53 10 15 17
32 16 37 -2 5 3 16 11 25 8 9 20 31 27 49 7 19 18 39 25 45 16 17 26 75 15 82
-6 4 -8 11 -4 16 4 6 11 6 20 -2 12 -9 14 -6 14 23 0 19 4 38 9 44 15 15 25
218 12 242 -6 12 -7 23 -2 26 9 6 -1 50 -20 88 -5 10 -7 38 -5 63 3 25 3 45 2
45 -2 0 -10 -8 -19 -18z"/>
<path d="M7047 4069 c-54 -29 -97 -100 -97 -161 0 -104 97 -218 186 -218 38 0
85 32 122 84 29 40 32 52 32 113 0 60 -4 76 -30 117 -50 79 -137 105 -213 65z"/>
<path d="M7995 4075 c-76 -29 -115 -88 -115 -175 0 -61 19 -106 66 -152 45
-46 63 -52 120 -43 88 13 153 101 154 205 0 125 -112 207 -225 165z"/>
<path d="M7435 3666 c-13 -9 -20 -30 -23 -69 -4 -49 0 -64 28 -118 37 -72 35
-93 -17 -131 -57 -44 -90 -38 -225 40 l-37 21 -16 -22 c-42 -60 6 -172 103
-239 43 -30 54 -33 122 -33 68 0 79 3 120 32 25 17 56 43 69 57 l24 26 21 -24
c34 -39 122 -85 174 -92 62 -8 121 17 187 77 64 59 80 92 64 133 -25 63 -68
72 -149 31 -27 -14 -60 -25 -73 -25 -34 0 -105 55 -113 87 -6 22 -1 31 30 56
84 67 86 151 5 193 -38 19 -267 20 -294 0z"/>
<path d="M8460 3446 c0 -15 -6 -34 -12 -41 -7 -8 -33 -45 -57 -82 -25 -37 -69
-88 -98 -113 -29 -25 -73 -63 -98 -85 -25 -22 -56 -48 -70 -58 -32 -23 -24
-40 13 -26 14 6 29 13 32 17 3 4 23 20 45 37 43 31 195 184 195 195 0 4 9 17
20 30 27 31 55 129 41 143 -8 8 -11 3 -11 -17z"/>
<path d="M7860 2900 c-8 -5 -25 -10 -37 -10 -13 0 -23 -4 -23 -8 0 -4 -21 -14
-47 -22 -46 -14 -47 -15 -17 -18 19 -2 45 5 65 17 19 12 44 21 55 21 12 0 27
7 34 15 10 12 10 15 -1 15 -8 0 -21 -5 -29 -10z"/>
<path d="M7625 2819 c-4 -6 -4 -13 0 -17 3 -3 9 -1 13 5 4 6 21 13 37 16 28 4
27 4 -7 6 -20 0 -40 -4 -43 -10z"/>
<path d="M5085 3831 c-68 -12 -135 -53 -213 -128 -42 -40 -79 -73 -83 -73 -4
0 -17 15 -28 34 -36 58 -132 122 -232 154 -137 45 -339 -30 -452 -167 -66 -81
-90 -141 -100 -260 l-10 -106 -86 -2 c-173 -3 -268 -70 -362 -253 -31 -62 -33
-70 -33 -175 1 -118 20 -188 80 -290 47 -81 161 -186 246 -227 41 -21 78 -45
82 -54 8 -21 -1 -57 -32 -124 -22 -46 -26 -70 -26 -150 -1 -84 3 -104 29 -165
50 -120 116 -207 204 -273 20 -15 38 -29 41 -32 12 -12 98 -49 140 -60 71 -18
311 -2 326 21 3 5 14 9 24 9 17 0 144 63 165 81 15 14 48 10 91 -10 37 -17 94
-43 139 -61 21 -9 65 -22 131 -39 142 -37 354 30 480 151 72 69 102 114 139
209 34 85 35 227 4 315 -11 32 -23 73 -26 89 -4 27 -1 32 38 48 62 27 148 88
194 138 114 124 195 397 156 525 -5 16 -15 49 -22 74 -33 110 -89 177 -195
230 -62 32 -79 35 -174 40 l-105 5 -2 60 c-10 233 -104 372 -305 453 -36 15
-172 23 -223 13z m-614 -262 c59 -20 143 -117 176 -204 16 -40 33 -129 33
-166 0 -96 -63 -203 -126 -215 -69 -13 -121 4 -174 54 -75 73 -118 173 -135
313 -11 91 34 170 120 210 47 22 61 23 106 8z m766 -29 c39 -22 61 -44 83 -83
28 -47 31 -59 27 -122 -4 -85 -41 -206 -78 -259 -53 -74 -163 -120 -217 -92
-33 17 -73 59 -101 106 -38 63 -24 217 30 325 40 80 129 154 184 155 11 0 44
-14 72 -30z m-1225 -526 c68 -35 135 -104 165 -172 21 -47 25 -73 26 -146 l0
-90 -41 -37 c-137 -121 -327 -15 -387 216 -23 85 -19 124 15 178 58 91 116
105 222 51z m1721 25 c28 -15 53 -45 78 -93 30 -57 24 -150 -17 -236 -91 -192
-286 -247 -386 -108 -32 46 -30 172 5 243 69 140 234 240 320 194z m-828 -299
c73 -42 121 -98 204 -237 59 -101 84 -133 148 -190 135 -119 180 -170 203
-231 24 -63 23 -88 -10 -174 -40 -108 -124 -163 -250 -162 -48 0 -86 5 -105
15 -38 20 -107 59 -120 68 -26 19 -139 61 -164 61 -15 0 -74 -24 -132 -54
-122 -63 -237 -106 -282 -106 -46 0 -149 52 -193 97 -46 47 -94 150 -94 200 0
50 25 129 53 170 12 18 54 56 92 85 112 83 177 155 221 243 45 92 127 186 194
221 69 36 166 34 235 -6z"/>
<path d="M2077 2843 c18 -2 50 -2 70 0 21 2 7 4 -32 4 -38 0 -55 -2 -38 -4z"/>
<path d="M2459 2839 c30 -5 60 -14 66 -19 7 -6 16 -5 23 2 23 23 11 28 -65 27
l-78 -1 54 -9z"/>
<path d="M6431 2764 c0 -11 3 -14 6 -6 3 7 2 16 -1 19 -3 4 -6 -2 -5 -13z"/>
<path d="M8770 2760 c0 -19 3 -21 12 -12 9 9 9 15 0 24 -9 9 -12 7 -12 -12z"/>
<path d="M8350 1650 c0 -11 5 -20 10 -20 6 0 10 -19 10 -42 0 -40 14 -114 45
-233 l13 -50 1 47 c1 49 -14 129 -30 160 -5 10 -9 35 -9 56 0 44 -18 102 -31
102 -5 0 -9 -9 -9 -20z"/>
<path d="M8441 1284 c0 -11 3 -14 6 -6 3 7 2 16 -1 19 -3 4 -6 -2 -5 -13z"/>
</g>
</svg>
